<svg width="24" height="24" viewBox="0 0 24 24" fill="none" xmlns="http://www.w3.org/2000/svg">
<path d="M10.1417 15.1498C10.0614 14.8383 9.89906 14.5541 9.67162 14.3267C9.44417 14.0992 9.15994 13.9369 8.84848 13.8565L3.32712 12.4328C3.23292 12.406 3.15001 12.3493 3.09098 12.2712C3.03194 12.193 3 12.0978 3 11.9999C3 11.902 3.03194 11.8067 3.09098 11.7286C3.15001 11.6505 3.23292 11.5937 3.32712 11.567L8.84848 10.1423C9.15983 10.0621 9.44399 9.89985 9.67142 9.67257C9.89886 9.44529 10.0613 9.16125 10.1417 8.84996L11.5655 3.32859C11.592 3.23402 11.6487 3.15071 11.7269 3.09135C11.8051 3.032 11.9006 2.99988 11.9989 2.99988C12.0971 2.99988 12.1926 3.032 12.2708 3.09135C12.349 3.15071 12.4057 3.23402 12.4322 3.32859L13.8551 8.84996C13.9354 9.16141 14.0977 9.44565 14.3252 9.67309C14.5526 9.90053 14.8369 10.0629 15.1483 10.1432L20.6697 11.5661C20.7646 11.5923 20.8484 11.6489 20.908 11.7273C20.9677 11.8056 21 11.9014 21 11.9999C21 12.0984 20.9677 12.1941 20.908 12.2725C20.8484 12.3509 20.7646 12.4075 20.6697 12.4337L15.1483 13.8565C14.8369 13.9369 14.5526 14.0992 14.3252 14.3267C14.0977 14.5541 13.9354 14.8383 13.8551 15.1498L12.4313 20.6712C12.4048 20.7657 12.3481 20.849 12.2699 20.9084C12.1917 20.9678 12.0962 20.9999 11.998 20.9999C11.8997 20.9999 11.8042 20.9678 11.726 20.9084C11.6478 20.849 11.5911 20.7657 11.5646 20.6712L10.1417 15.1498Z" stroke="#2C915E" stroke-width="1.79996" stroke-linecap="round" stroke-linejoin="round"/>
</svg>
